<?xml version="1.0" encoding="utf-8"?>
<!-- Generator: Adobe Illustrator 22.0.1, SVG Export Plug-In . SVG Version: 6.00 Build 0)  -->
<svg version="1.1" id="Layer_1" xmlns="http://www.w3.org/2000/svg" xmlns:xlink="http://www.w3.org/1999/xlink" x="0px" y="0px"
	 width="480.2px" height="161.8px" viewBox="0 0 480.2 161.8" style="enable-background:new 0 0 480.2 161.8;" xml:space="preserve"
	>
<style type="text/css">
	.st0{fill:#FFFFFF;}
</style>
<g id="_x33_6uu74_2_">
	<g>
		<path class="st0" d="M317.6,107.8c0,10.4,0,20.8,0,31.2c0,11.7-7.8,20.3-18.4,20.4c-11.7,0.1-20-7.9-20-20c-0.1-20,0-40.1,0-60.1
			c0-19.3-13.7-35.4-32.1-37.9c-19.6-2.6-37,8.8-42.1,27.9c-0.9,3.4-1.3,7-1.3,10.5c-0.1,19.8-0.1,39.6-0.1,59.4
			c0,11.3-7.6,20.1-17.8,20.3c-11.9,0.3-20.6-7.4-20.7-19.4c-0.1-23.3-1.3-46.8,0.9-69.9c2.9-30.9,20.6-52.5,49.8-63.1
			c44.9-16.4,93.5,12.3,100.7,59.5c1.9,12,0.8,24.5,1.1,36.8C317.6,104.8,317.6,106.3,317.6,107.8z"/>
		<path class="st0" d="M397.6,78.9C409,89.4,416.9,102,419.8,117c1.7,8.6,2.7,17.6,2,26.3c-0.8,10.6-10,16.8-21.1,16
			c-9-0.7-16.7-9.2-16.7-19.1c0.1-10.5-2.6-20-9-28.4c-7.5-9.8-17.8-13.8-29.8-14.2c-10.2-0.3-18.2-8.4-18.4-18.5
			c-0.2-10.3,7.5-19,17.9-19.4c16.2-0.7,28.6-7.4,35.5-22.3c2.1-4.6,3.2-9.9,3.5-15c0.6-11.6,8.5-20.1,19.5-20
			c11,0.1,19.4,8.7,19.1,20.3c-0.6,21.4-7.5,40.1-23.7,54.8C398.4,77.9,398.1,78.3,397.6,78.9z"/>
		<path class="st0" d="M438.9,81c0-19.4,0-38.8,0-58.2c0-11.7,8-20.2,19-20.3c11.2-0.1,19.5,8.4,19.5,20.3c0,38.8,0,77.6,0,116.4
			c0,12.1-8.1,20.3-19.8,20.2c-10.8-0.1-18.7-8.6-18.7-20.2C438.9,119.8,438.9,100.4,438.9,81z"/>
		<path class="st0" d="M154.7,102.4c-0.1-11.3,0.4-22.6-0.9-33.8c-4.8-41.7-45-73.7-90.1-64.6C20.6,12.7-5.1,53.1,4.2,96.1
			c7.2,33.3,38.6,58.5,72.6,58.8c14.2,0.1,27.3-3.1,39.8-10c0.4,0.5,0.7,0.6,0.8,0.8c4.1,10.4,12.3,15.4,22.2,13.5
			c9.2-1.8,15.2-9.8,15.3-20.3C154.8,126.7,154.9,114.6,154.7,102.4z M80,116.6c-20.8,0.7-38.8-15.8-39.4-36
			c-0.6-21.6,15.7-39,37.3-39.8c20.3-0.7,37.8,16.3,38.4,37.5C117,98.2,100.2,115.9,80,116.6z"/>
	</g>
</g>
</svg>
