<?xml version="1.0" encoding="utf-8"?>
<!-- Generator: Adobe Illustrator 22.1.0, SVG Export Plug-In . SVG Version: 6.00 Build 0)  -->
<svg version="1.1" id="Layer_2_1_" xmlns="http://www.w3.org/2000/svg" xmlns:xlink="http://www.w3.org/1999/xlink" x="0px" y="0px"
	 viewBox="0 0 128 128" style="enable-background:new 0 0 128 128;" xml:space="preserve">
<style type="text/css">
	.st0{fill:none;stroke:#FFFFFF;stroke-width:3;stroke-miterlimit:10;}
</style>
<path class="st0" d="M92.7,50.8c-2.2,0-4.2,0.3-5.9,0.8c-4.4-11.4-15.5-19.5-28.4-19.5c-15,0-27.5,10.9-30.1,25.3
	c-7.4,1.7-12.9,8.5-12.9,16.4c0,9.4,7.6,16.9,16.9,16.9h60.4c11,0,19.9-8.9,19.9-19.9C112.6,59.7,103.7,50.8,92.7,50.8z"/>
<path class="st0" d="M92.7,90.7"/>
<path class="st0" d="M75,69c-1.7,6.9-8,12-15.5,12c-6.7,0-12.5-4.2-14.9-10.1"/>
<path class="st0" d="M43.9,62.1c1.4-7.4,7.9-13,15.6-13c6.5,0,12.1,3.8,14.5,9.4"/>
<polyline class="st0" points="75.9,50.6 74.3,59 66,57.5 "/>
<polyline class="st0" points="42.9,77.9 44.4,70 52.4,71.4 "/>
</svg>
