<?xml version="1.0" encoding="utf-8"?>
<!-- Generator: Adobe Illustrator 22.1.0, SVG Export Plug-In . SVG Version: 6.00 Build 0)  -->
<svg version="1.1" id="Layer_2_1_" xmlns="http://www.w3.org/2000/svg" xmlns:xlink="http://www.w3.org/1999/xlink" x="0px" y="0px"
	 viewBox="0 0 512 512" style="enable-background:new 0 0 512 512;" xml:space="preserve">
<style type="text/css">
	.st0{fill:none;stroke:#FFFFFF;stroke-width:10;stroke-miterlimit:10;}
</style>
<circle class="st0" cx="258.5" cy="351.6" r="16.3"/>
<g>
	<path class="st0" d="M136.7,254.9c30.9-31.7,74.1-51.4,121.8-51.4s90.9,19.7,121.8,51.4"/>
	<path class="st0" d="M409.4,225.9c-38.4-39.1-91.8-63.4-150.9-63.4S146,186.8,107.6,225.9"/>
	<path class="st0" d="M380.4,254.9c-30.9-31.7-74.1-51.4-121.8-51.4s-90.9,19.7-121.8,51.4"/>
	<path class="st0" d="M167.9,286.2c22.9-23.7,55-38.4,90.6-38.4s67.7,14.7,90.6,38.4"/>
	<path class="st0" d="M199.8,318.1c14.8-15.5,35.6-25.2,58.7-25.2s44,9.7,58.7,25.2"/>
	<path class="st0" d="M349.1,286.2c-22.9-23.7-55-38.4-90.6-38.4s-67.7,14.7-90.6,38.4"/>
	<path class="st0" d="M317.2,318.1c-14.8-15.5-35.6-25.2-58.7-25.2s-44,9.7-58.7,25.2"/>
</g>
</svg>
