<?xml version="1.0" encoding="utf-8"?>
<!-- Generator: Adobe Illustrator 22.1.0, SVG Export Plug-In . SVG Version: 6.00 Build 0)  -->
<svg version="1.1" id="Layer_2_1_" xmlns="http://www.w3.org/2000/svg" xmlns:xlink="http://www.w3.org/1999/xlink" x="0px" y="0px"
	 viewBox="0 0 256 256" style="enable-background:new 0 0 256 256;" xml:space="preserve">
<style type="text/css">
	.st0{fill:#FFFFFF;stroke-width:10;stroke-miterlimit:10;}
</style>
<g>
	<path class="st0" d="M128.3,45.4c45.6,0,82.6,37.1,82.6,82.6s-37.1,82.6-82.6,82.6s-82.6-37-82.6-82.6S82.7,45.4,128.3,45.4
		 M128.3,41.4c-47.8,0-86.6,38.8-86.6,86.6s38.8,86.6,86.6,86.6s86.6-38.8,86.6-86.6S176.2,41.4,128.3,41.4L128.3,41.4z"/>
</g>
<g>
	<path class="st0" d="M128.3,75.3c18.8,0,34.1,19.3,34.1,43.1c0,17.4-8.2,33-20.9,39.7l-2.1,3.5v18.1l3.5,4
		c8.3,1.1,16.1,3.2,23.2,6.2c-11.3,7-24.3,10.6-37.7,10.6c-13.5,0-26.4-3.7-37.7-10.6c7.1-3,14.9-5,23.2-6.2l3.5-4v-18.1l-2.1-3.5
		c-12.7-6.8-20.9-22.4-20.9-39.7C94.2,94.6,109.5,75.3,128.3,75.3 M128.3,71.3c-21.1,0-38.1,21.1-38.1,47.1c0,19.4,9.5,36,23.1,43.3
		v18.1c-9.4,1.3-18.1,3.7-25.7,7.1c-1.6,0.7-3.5,1.5-5.2,2.2c12.8,9.7,28.7,15.4,46,15.4c16.9,0,32.5-5.5,45.2-14.9l-4.4-2.8
		c-7.6-3.4-16.3-5.8-25.7-7.1v-18.1c13.6-7.2,23.1-23.9,23.1-43.3C166.4,92.3,149.4,71.3,128.3,71.3L128.3,71.3z"/>
</g>
</svg>
