<?xml version="1.0" encoding="utf-8"?>
<!-- Generator: Adobe Illustrator 22.1.0, SVG Export Plug-In . SVG Version: 6.00 Build 0)  -->
<svg version="1.1" id="Layer_2" xmlns="http://www.w3.org/2000/svg" xmlns:xlink="http://www.w3.org/1999/xlink" x="0px" y="0px"
	 viewBox="0 0 86 86" style="enable-background:new 0 0 86 86;" xml:space="preserve">
<style type="text/css">
	.st0{fill:#FFFFFF;}
	.st1{fill:none;stroke:#FFFFFF;stroke-width:2;stroke-miterlimit:10;}
</style>
<g>
	<path class="st0" d="M60.3,18.9l7.3,48.9H28.7l-7.3-48.9H60.3 M61.9,14.9H18.6c-1,0-1.8,0.8-1.6,1.8L25,70c0.1,1,1.1,1.8,2.1,1.8
		h43.3c1,0,1.8-0.8,1.6-1.8l-8-53.3C63.8,15.7,62.9,14.9,61.9,14.9L61.9,14.9z"/>
</g>
<line class="st1" x1="30.1" y1="55.2" x2="62.6" y2="55.2"/>
<line class="st1" x1="31.1" y1="62.7" x2="63.5" y2="62.7"/>
<path class="st1" d="M41.8,23.5c-7,0-11.9,5.6-11,12.5c0.9,6.9,7.2,12.4,14.1,12.3s11.9-5.6,11-12.5C55.1,29,48.8,23.5,41.8,23.5
	L41.8,23.5z"/>
<g>
	<path class="st0" d="M46.5,43.7l-0.3-2.4c1.7-1,2.8-3.3,2.4-5.9c-0.4-3.5-3.1-6.4-6-6.3c-2.9,0-4.9,2.9-4.4,6.4
		c0.3,2.6,1.9,4.9,3.9,5.8l0.3,2.4c-1.3,0.2-2.4,0.5-3.4,1c-0.2,0.1-0.5,0.2-0.7,0.3c1.9,1.3,4.2,2.1,6.6,2c2.3,0,4.4-0.8,6-2.1
		l-0.7-0.4C49.1,44.2,47.8,43.9,46.5,43.7z"/>
</g>
</svg>
