<?xml version="1.0" encoding="utf-8"?>
<!-- Generator: Adobe Illustrator 22.1.0, SVG Export Plug-In . SVG Version: 6.00 Build 0)  -->
<svg version="1.1" id="Layer_2" xmlns="http://www.w3.org/2000/svg" xmlns:xlink="http://www.w3.org/1999/xlink" x="0px" y="0px"
	 viewBox="0 0 256 256" style="enable-background:new 0 0 256 256;" xml:space="preserve">
<style type="text/css">
	.st0{fill:none;stroke:#FFFFFF;stroke-width:4;stroke-linecap:round;stroke-linejoin:round;stroke-miterlimit:10;}
</style>
<g>
	<path class="st0" d="M85.7,123.8l-0.3,6.1l0,0L85.7,123.8c0.6-11.5,8.4-20.6,24.1-19.6l0.2,0l-0.2,0
		C94.1,103.2,86.4,112.3,85.7,123.8z"/>
	<path class="st0" d="M137.7,131.1l0.1-3.7c0.3-11.9-7.6-21.4-20.3-22.6l-7.1-0.7l-0.3,0l-0.2,0c-15.7-1-23.5,8.1-24.1,19.6
		l-0.3,6.1c0,2.3,0.1,3.4,0.1,3.4"/>
</g>
<path class="st0" d="M102.3,169.8c4,0.5,7.3,3.8,7.8,7.8c0.7,5.9-4.2,10.9-10.2,10.2c-4-0.5-7.3-3.8-7.8-7.8
	C91.4,174,96.4,169,102.3,169.8z"/>
<path class="st0" d="M155.2,177.3c3.3-0.5,6.2,2.3,5.6,5.6c-0.3,2-2,3.7-4,4c-3.3,0.5-6.2-2.3-5.6-5.6
	C151.6,179.2,153.2,177.6,155.2,177.3z"/>
<g>
	<path class="st0" d="M50.7,152c0.4-0.1,0.7,0.1,1,0.4l3.1,2.7c0.2,0.1,0.4,0.2,0.6,0.3l0.3,0c0.6,0.1,1.1-0.3,1.1-0.7L57,153
		c0-0.1,0-0.1,0-0.2l0.9-4.2c0.3-1.5,1.1-2.7,2.2-3.4c0.3-0.2,0.8-0.5,1.2-0.8c0.5-0.3,5.9-0.5,6.6-0.5c1.5-0.1,3.2,0.7,3.9,3.1
		c0.2,0.7,0.3,1.4,0.3,2.4l0.1,3.4l0,1.8l0.1,4.8l0.1,3l0.2,7c0,0.1,0,0.2,0,0.2l-0.3,2.1l-1,7.5c0,0,0,0.1,0,0.1l-0.5,7.2
		c-0.1,0.2-0.2,0.3-0.2,0.5c0,0,0-0.1,0-0.1c0,0,0,0.1,0,0.1c0.1-0.2,0.1-0.3,0.2-0.5l-0.3,3.8c-0.1,1.8-1.2,3-1.9,3.1
		c0,0-1.6,0.2-4.4,0.2c-4.3,0-5.8-1.8-5.9-4.1l-0.3-7.3c-0.1-3.9-0.8-7.7-2-11.2L50,153.5C49.7,152.9,50.1,152.1,50.7,152z"/>
	<path class="st0" d="M89.5,162.4c1.7-1.1,3.4-1.9,5.1-2.2c1.1-0.2,2.3-0.3,3.6-0.2c1.1,0.1,2.1,0.2,3,0.3c0.6,0.1,1.2,0.1,1.7,0.2
		c0.9,0.2,1.8,0.3,2.7,0.4l0.1,0c2.3,0.4,4.3,0.8,6.8,1.4c13,2.8,18.1,4.8,21.7,4.9c7.6,0.1,15.4,0.4,21.5,0.2
		c6.1-0.2,8.5-4.3,8.1-10.3c-0.4-4.9-2.3-9.3-8.3-8.5c4.7-0.6,6.9-5,6.2-10c-0.5-4.3-4.7-8.6-9.5-7.4c-2.4,0.6-8.7,2.1-14.7,2.8
		c0.1-1.7,0.1-2.8,0.1-2.8l0.1-3.7c0.3-11.9-7.6-21.4-20.3-22.6l-7.1-0.7c17,1,38.1,5.2,38.1,5.2c16,2.5,32.8,4.8,36.7,27.7l0.3,1.3
		c2,9.8,1,16.2-1.3,24.7c-1.8,6.6-6.1,15.8-8,19.5c-0.4,0.9-0.9,1.8-1.3,2.8c-1.2,2.8-5.3,10.3-15,10.3H98.3
		c-10.5,0-17.6-8.6-17.6-17.7c-0.1-2.5-0.1-4.6,0-6.5c2.3-2.9,4.3-5.2,5.4-6.3C87.3,164,88.4,163.1,89.5,162.4z"/>
	<path class="st0" d="M137.9,150.4c4.8-0.7,12.7-1.3,17.7-1.9C150.6,149.2,142.7,149.7,137.9,150.4z"/>
	<path class="st0" d="M102.9,160.5c1,0.1,1.9,0.3,2.8,0.4l-0.1,0C104.7,160.8,103.8,160.7,102.9,160.5z"/>
	<path class="st0" d="M132.2,150.8c1.3,0.1,2.7,0,5.7-0.4c4.8-0.7,12.7-1.2,17.7-1.9c6-0.8,8,3.6,8.3,8.5c0.4,6.1-2,10.1-8.1,10.3
		c-6.1,0.2-13.9,0-21.5-0.2c-3.7,0-8.7-2-21.7-4.9c-2.5-0.6-4.5-1-6.8-1.4c-0.8-0.1-1.8-0.3-2.8-0.4c-0.5-0.1-1.1-0.1-1.7-0.2
		c-0.9-0.1-1.9-0.2-3-0.3c-1.3-0.1-2.4,0-3.6,0.2c-1.8,0.3-3.5,1-5.1,2.2c-1.1,0.8-2.2,1.7-3.4,2.8c-1.1,1.1-3.2,3.5-5.4,6.3"/>
	<path class="st0" d="M80.7,171.5c-3.7,4.7-8,10.7-10,15.1l0.5-7.2c0,0,0-0.1,0-0.1l1-7.5l0.3-2.1c0-0.1,0-0.2,0-0.2l-0.2-7
		c6.9-7.9,18.5-19.6,25.6-18.5c9.7,1.5,29,6.4,31.7,6.6c1,0.1,1.7,0.2,2.5,0.2"/>
	<path class="st0" d="M132.2,150.8c-0.8,0-1.5-0.1-2.5-0.2c-2.7-0.2-22-5.1-31.7-6.6c-7.1-1.1-18.7,10.6-25.6,18.5l-0.1-3l-0.1-4.8
		l0-1.8l-0.1-3.4c0-0.9-0.1-1.7-0.3-2.4c5.1-5,11-11.1,14.4-14.6c2.2-2.3,4.6-4.1,7.4-4.7c1.1-0.2,2.3-0.3,3.5-0.4
		c6.6,0,14.3,3.1,18.7,3.9c3.6,0.7,8.8,2,13.7,2.6c2.1,0.2,4.2,0.3,6.2,0.2c0.5,0,1.1-0.1,1.6-0.1c0.1,0,0.2,0,0.4,0"/>
	<path class="st0" d="M137.5,133.9c6-0.6,12.3-2.2,14.7-2.8c4.9-1.2,9,3.1,9.5,7.4c0.6,4.9-1.5,9.4-6.2,10
		c-4.9,0.6-12.8,1.2-17.7,1.9c-3,0.4-4.4,0.5-5.7,0.4"/>
</g>
<line class="st0" x1="147.4" y1="96.6" x2="147.4" y2="58.6"/>
<path class="st0" d="M146.5,188.7"/>
<line class="st0" x1="160.4" y1="98.4" x2="168.4" y2="59.1"/>
<line class="st0" x1="174.2" y1="103.6" x2="188" y2="64.6"/>
<line class="st0" x1="186.9" y1="110.1" x2="205" y2="75.8"/>
<path class="st0" d="M94.6,127.6c1.3-6.2,6.7-10.9,13.3-11.2l3.3-0.1c10.2,0,16.5,5.8,16.8,13.5l-0.5,3.8c-5.1-0.5-14.2-2.9-18-3.5
	C104.9,129.4,101.3,127.6,94.6,127.6z"/>
</svg>
