<?xml version="1.0" encoding="utf-8"?>
<!-- Generator: Adobe Illustrator 22.1.0, SVG Export Plug-In . SVG Version: 6.00 Build 0)  -->
<svg version="1.1" id="Layer_1" xmlns="http://www.w3.org/2000/svg" xmlns:xlink="http://www.w3.org/1999/xlink" x="0px" y="0px"
	 viewBox="0 0 512 512" style="enable-background:new 0 0 512 512;" xml:space="preserve">
<style type="text/css">
	.st0{fill:none;stroke:#FFFFFF;stroke-width:4;stroke-linecap:round;stroke-linejoin:round;stroke-miterlimit:10;}
</style>
<g>
	<path class="st0" d="M304.6,415c2-0.1,4.2-0.3,6.6-0.5c2.7-0.2,5.3-0.1,7.8,0.3C314.3,414.7,308.9,414.9,304.6,415z"/>
	<path class="st0" d="M285.3,309.7l-0.5,0.1L285.3,309.7c33.5-2,50.1,17.4,51.5,41.9l0.7,13l0,0l-0.7-13
		C335.4,327,318.9,307.6,285.3,309.7z"/>
	<path class="st0" d="M304.7,415.2c-1.4,0.2-2.6,0.3-3.8,0.4c-1.9,0.3-3.8,0.6-5.8,0.7h-0.2c-5.2,0.7-9.4,1.5-15,2.5
		c-28.5,5.1-39.5,8.7-47.6,8.8c-16.7,0.2-37.8,0.5-51.2,0.2c-10.6-0.2-14.6-8.6-13.7-18.7s6.2-16.6,17-15.5c-10.4-1-13.6-9-12.5-18
		c1.3-11.1,7.7-15.4,20.9-13.5c5.5,0.8,19.7,4,33.1,5.1l-0.2-7.8c-0.6-25.5,16.2-45.8,43.4-48.2l15.1-1.4
		c-36.3,2.2-81.5,11.1-81.5,11.1c-34.1,5.4-69.9,10.2-78.3,59.2l-0.6,2.8c-4.3,21-2.1,34.6,2.8,52.7c3.8,14,13.1,33.7,17,41.7
		c1,1.9,1.8,3.9,2.7,5.9c2.5,6,11.4,22.1,31.9,22.1H310c22.3,0,37.6-18.2,37.6-37.8c1.1-20-2.5-29.6-8.6-39.1c-1.3-2-2.7-3.9-5-6.3
		c-0.8-0.8-2.1-2.1-3.8-3.3c-3.6-2.1-7.3-3.4-11.2-4C314.3,414.7,308.9,414.9,304.7,415.2z M178.5,488.3
		c-7.4-1.2-13.3-7.1-14.5-14.5c-2-12.1,8.4-22.5,20.5-20.5c7.4,1.2,13.3,7.1,14.5,14.5C201,480,190.7,490.3,178.5,488.3z
		 M328.7,463.5c-1.6,12.8-12,23.2-24.8,24.8c-18.8,2.4-34.7-13.5-32.3-32.3c1.6-12.8,12-23.2,24.8-24.8
		C315.3,428.8,331.1,444.7,328.7,463.5z"/>
	<path class="st0" d="M328.7,463.5c-1.6,12.8-12,23.2-24.8,24.8c-18.8,2.4-34.7-13.5-32.3-32.3c1.6-12.8,12-23.2,24.8-24.8
		C315.3,428.8,331.1,444.7,328.7,463.5z"/>
	<path class="st0" d="M199,467.8c2,12.1-8.4,22.5-20.5,20.5c-7.4-1.2-13.3-7.1-14.5-14.5c-2-12.1,8.4-22.5,20.5-20.5
		C191.9,454.5,197.8,460.5,199,467.8z"/>
	<path class="st0" d="M295,416.1h-0.2c1.8-0.2,3.8-0.5,6-0.7C298.9,415.8,297,416.1,295,416.1z"/>
	<path class="st0" d="M269.1,311.2l15.1-1.4l0.6-0.1l0.5-0.1c33.5-2,50.1,17.4,51.5,41.9l0.7,13c-4.7-4.2-10-7.5-16.1-8.6
		c-2.4-0.4-5-0.6-7.6-0.6c-2.8-13.1-14.3-23.2-28.2-23.7l-7-0.2c-21.5,0-34.9,12.3-35.5,28.7l-0.2,7c-4.7,0.4-9.2,0.6-13.5,0.4
		c-1.2-0.1-2.3-0.2-3.5-0.3l-0.2-7.8C225.1,334,241.9,313.6,269.1,311.2z"/>
	<path class="st0" d="M273,362.5c-8,1.2-19.2,3.6-30.1,4.6l0.2-7c0.5-16.4,13.9-28.7,35.5-28.7l7,0.2c14,0.5,25.4,10.6,28.2,23.7
		C299.4,355.3,282.5,360.9,273,362.5z"/>
	<path class="st0" d="M369.5,476.4c0,0.1,0,0.1,0,0.2c-6.4-15.2-25.2-47.1-31.8-52.6c-2.5-2.1-5-3.8-7.4-5.2
		c-3.6-2.1-7.3-3.4-11.2-4c-2.5-0.4-5.1-0.5-7.8-0.3c-2.4,0.1-4.6,0.3-6.6,0.5c-1.4,0.2-2.6,0.3-3.8,0.4c-2.2,0.2-4.1,0.4-6,0.7
		c-5.2,0.7-9.4,1.5-15,2.5c-28.5,5.1-39.5,8.7-47.6,8.8c-16.7,0.2-37.8,0.5-51.2,0.2c-10.6-0.2-14.6-8.6-13.7-18.7s6.2-16.6,17-15.5
		c10.8,1.2,29.3,2.3,39.9,3.6c10.5,1.3,12,0.8,17.8,0.4c5.9-0.4,48.1-9.2,69.4-12c23.3-3,55.7,46.4,55.7,46.4l-0.2,8.7l-0.5,18.1
		c0,0.1,0,0.3,0,0.4l0.7,3.8L369.5,476.4z"/>
	<path class="st0" d="M337.5,364.6L337.5,364.6c7.6,6.7,13.8,15.7,19.7,22.6l0,0c3.2,3.7,6.4,7.6,9.6,11.2c2.4,2.7,4.4,4.9,5.4,6
		c0.5,0.5,7.8,8.5,8.2,9c-1.1-0.5-2.4-0.9-3.9-1c-4.1-0.2-8.9,2-9.1,10l-0.2,6.2l-0.1,3.3c0,0-32.5-49.5-55.7-46.4
		c-21.3,2.8-63.6,11.6-69.4,12s-7.2,0.9-17.8-0.4c-10.6-1.3-29.1-2.5-39.9-3.6c-10.4-1-13.6-9-12.5-18c1.3-11.1,7.7-15.4,20.9-13.5
		c5.5,0.8,19.7,4,33.1,5.1c1.2,0.1,2.3,0.2,3.5,0.3c4.3,0.2,8.9,0,13.5-0.4c10.9-1,22.1-3.3,30.1-4.6c9.6-1.5,26.5-7.1,40.9-7.1
		c2.6,0,5.2,0.1,7.6,0.6C327.5,357.1,332.8,360.3,337.5,364.6z"/>
	<path class="st0" d="M404.2,430l-12.6,31.5c-2.6,6.5-4.1,13.3-4.4,20.3l-0.6,13.1c-0.1,1.3-0.5,2.5-1.2,3.5
		c-1.2,1.7-3.2,2.8-5.3,2.9l-6.9,0.2c-1.1,0-2-0.8-2.1-1.9l-2-22.8c0-0.1,0-0.1,0-0.2l-2.2-13.6l-0.7-3.8c0-0.1,0-0.3,0-0.4
		l0.5-18.1l0.2-8.7l0.1-3.3l0.2-6.2c0.2-8,5-10.2,9.1-10c1.5,0.1,2.9,0.5,3.9,1c0.8,0.4,1.8,1.1,2.5,1.4c2.4,1.2,4.1,3.5,4.7,6.1
		l2,8.9c0.1,0.1,0.1,0.3,0.1,0.4v4.5c0,1.2,1.1,2.2,2.4,2l0.7-0.1c0.5-0.1,1-0.3,1.3-0.7l7.1-8.4c0.5-0.6,1.2-0.9,2-0.7
		C404.3,427.2,405,428.5,404.2,430z"/>
</g>
<g>
	<path class="st0" d="M198.1,301l1.5-93.1L198.1,301z"/>
	<polygon class="st0" points="150.6,213.1 159.6,212.1 163.9,301 198.1,301 199.6,207.9 199.6,207.9 201.3,98.1 199.6,207.9 
		239.4,203.7 235.1,189.4 250,189.4 250,98.1 250,189.4 255.4,189.4 295.6,189.4 295.6,179.1 298.5,91 295.6,179.1 336.2,179 
		344.6,25.1 250,6.7 154.2,25.4 154.2,63.6 127.1,142 	"/>
	<line class="st0" x1="295.6" y1="179.1" x2="298.5" y2="91"/>
	<line class="st0" x1="250" y1="189.4" x2="250" y2="98.1"/>
	<line class="st0" x1="198.1" y1="301" x2="199.6" y2="207.9"/>
	<line class="st0" x1="199.6" y1="207.9" x2="201.3" y2="98.1"/>
</g>
<line class="st0" x1="199.9" y1="189.4" x2="235.1" y2="189.4"/>
<line class="st0" x1="154.2" y1="63.6" x2="159.6" y2="212.1"/>
</svg>
