<?xml version="1.0" encoding="utf-8"?>
<!-- Generator: Adobe Illustrator 22.1.0, SVG Export Plug-In . SVG Version: 6.00 Build 0)  -->
<svg version="1.1" id="Layer_2_1_" xmlns="http://www.w3.org/2000/svg" xmlns:xlink="http://www.w3.org/1999/xlink" x="0px" y="0px"
	 viewBox="0 0 128 128" style="enable-background:new 0 0 128 128;" xml:space="preserve">
<style type="text/css">
	.st0{fill:#808080;}
	.st1{fill-rule:evenodd;clip-rule:evenodd;fill:#808080;}
</style>
<g>
	<path class="st0" d="M64,48c2.3,0,4.2,1.9,4.2,4.2v14.7c0,2.3-1.9,4.2-4.2,4.2c-2.3,0-4.2-1.9-4.2-4.2V52.2
		C59.8,49.9,61.7,48,64,48 M64,42c-5.6,0-10.2,4.6-10.2,10.2v14.7C53.8,72.5,58.4,77,64,77c5.6,0,10.2-4.6,10.2-10.2V52.2
		C74.2,46.5,69.6,42,64,42L64,42z"/>
</g>
<path class="st1" d="M48.9,58.3h30.2v22.8H48.9V58.3z"/>
</svg>
