<?xml version="1.0" encoding="utf-8"?>
<!-- Generator: Adobe Illustrator 22.1.0, SVG Export Plug-In . SVG Version: 6.00 Build 0)  -->
<svg version="1.1" id="Vector_Logo" xmlns="http://www.w3.org/2000/svg" xmlns:xlink="http://www.w3.org/1999/xlink" x="0px"
	 y="0px" viewBox="0 0 427.2 142.3" style="enable-background:new 0 0 427.2 142.3;" xml:space="preserve">
<style type="text/css">
	.st0{fill:#FFFFFF;}
</style>
<path class="st0" d="M144.6,116.2h-15.9c-6.6,0-12.2-2.5-16.1-7.2c-4.2-5-6.3-12.4-6.3-21.9v-10c0-17.5,8.4-28,22.4-28h15.9
	c12,0,21.7,9.8,21.7,21.7v15h-51.1v1.3c0,13.3,4.5,20.1,13.4,20.1h15.9c6.8,0,12.7-6.8,12.7-10.1h9
	C166.3,105.7,156.3,116.2,144.6,116.2z M115.2,76.8h42.1v-6c0-7-5.7-12.7-12.7-12.7h-15.9C117.7,58.1,115.3,68.2,115.2,76.8z"/>
<path class="st0" d="M330.9,116.2h-15.6c-6.6,0-12.2-2.5-16.1-7.2c-4.2-5-6.3-12.4-6.3-21.9v-10c0-17.5,8.4-28,22.4-28h15.6
	c14,0,22.4,10.5,22.4,28v10c0,9.5-2.1,16.9-6.3,21.9C343,113.7,337.5,116.2,330.9,116.2z M315.3,58.1c-11,0-13.4,10.3-13.4,19v10
	c0,13.3,4.5,20.1,13.4,20.1h15.6c8.9,0,13.4-6.8,13.4-20.1v-10c0-8.7-2.3-19-13.4-19H315.3z"/>
<path class="st0" d="M375.7,115.2h-9V73.6c0-10.2,4.2-16.1,7.8-19.1c4-3.4,9.4-5.4,14.9-5.4h8.5v9h-8.5c-2.3,0-13.6,0.7-13.6,15.5
	V115.2z"/>
<path class="st0" d="M276,106.7c-2.3,0-13.6-0.7-13.6-15.5V59.5h20.1v-9h-20.1V34.9h-9v56.3c0,10.2,4.2,16.1,7.8,19.1
	c4,3.4,9.4,5.4,14.8,5.4h8.5v-9H276z"/>
<path class="st0" d="M217.7,116.2h-15.6c-6.6,0-12.2-2.5-16.1-7.2c-4.2-5-6.3-12.4-6.3-21.9v-10c0-17.5,8.4-28,22.4-28h15.6
	c11.7,0,21.7,10.5,21.7,19.1h-9c0-3.3-5.9-10.1-12.7-10.1h-15.6c-11,0-13.4,10.3-13.4,19v10c0,13.3,4.5,20.1,13.4,20.1h15.6
	c6.8,0,12.7-6.8,12.7-10.1h9C239.4,105.7,229.4,116.2,217.7,116.2z"/>
<path class="st0" d="M68.1,117.4h-7.8c-0.2-0.3-17.3-30-25.5-44.5c-5-8.8-5.4-17.6-5.4-30.1v-18h9v18c0,12.9,0.6,19.3,4.2,25.7
	c5.8,10.2,16,28,21.6,37.7c5.6-9.7,15.8-27.4,21.6-37.7c3.6-6.4,4.2-12.8,4.2-25.7v-18h9v18c0,12.5-0.4,21.3-5.4,30.1
	C85.4,87.5,68.3,117.1,68.1,117.4z"/>
</svg>
